# xmcd CD database file
#
# Track frame offsets:
#	150
#	2884
#	16374
#	34065
#	50346
#	64423
#	76649
#	91863
#	116590
#	130512
#	157202
#
# Disc length: 2335 seconds
#
# Revision: 0
# Processed by: cddbd v1.5.1PL0 Copyright (c) Steve Scherf et al.
# Submitted via: CDex 1.51
#
DISCID=81091d0b
DTITLE=渚ようこ＆ザ・ヤング - ライヴ
DYEAR=2002
DGENRE=Pop
TTITLE0=司会者挨拶
TTITLE1=あなたに負けたの
TTITLE2=気まぐれ列車
TTITLE3=ブーガルー・ベイビー
TTITLE4=ZENZENブルース
TTITLE5=本牧ブルース
TTITLE6=キャンピングカー・キャラベルエアー
TTITLE7=ダンス天国
TTITLE8=アダムとイブ
TTITLE9=マイ・ウェイ
TTITLE10=旅立つ朝−あした−
EXTD=YEAR: 2002
EXTT0=
EXTT1=
EXTT2=
EXTT3=
EXTT4=
EXTT5=
EXTT6=
EXTT7=
EXTT8=
EXTT9=
EXTT10=
PLAYORDER=
